<svg width="308.9750183105469px" height="121.48572082519532px" xmlns="http://www.w3.org/2000/svg" viewBox="95.51249084472656 14.257139587402342 308.9750183105469 121.48572082519532" style="background: rgba(0, 0, 0, 0);" preserveAspectRatio="xMidYMid"><defs><linearGradient id="editing-shiny-gradient" x1="0.04322727117869957" x2="0.9567727288213004" y1="0.2966316784620999" y2="0.7033683215379001" gradientUnits="objectBoundingBox"><stop offset="0.0" stop-color="#ffb200"></stop><stop offset="0.5" stop-color="#e10057"></stop><stop offset="1.0" stop-color="#5A1A80"></stop></linearGradient><linearGradient id="editing-shiny-gradient2" x1="0" x2="0" y1="0" y2="1"><stop offset="0.2" stop-color="#fff" stop-opacity="0.8"></stop><stop offset="0.8" stop-color="#fff" stop-opacity="0"></stop></linearGradient><filter id="editing-shiny2" x="-100%" y="-100%" width="300%" height="300%"><feMorphology operator="erode" radius="2"></feMorphology></filter><filter id="editing-shiny" x="-100%" y="-100%" width="300%" height="300%"><feFlood flood-color="#fff" result="flood"></feFlood><feConvolveMatrix in="SourceGraphic" result="conv" order="8,8" divisor="1" kernelMatrix="0 0 0 0 0 0 0 0 0 0 0 1 1 0 0 0 0 0 0 1 1 0 0 0 0 0 1 0 0 1 0 0 0 0 1 0 0 1 0 0 0 1 0 0 0 0 1 0 0 1 1 0 0 1 1 0 0 0 0 1 1 0 0 0 "></feConvolveMatrix><feOffset dx="0" dy="4" in="conv" result="offset"></feOffset><feComposite operator="in" in="flood" in2="offset" result="comp"></feComposite><feGaussianBlur in="offset" stdDeviation="3" result="shadow"></feGaussianBlur><feColorMatrix in="shadow" type="matrix" values="0.7 0 0 0 0  0 0.7 0 0 0  0 0 0.7 0 0  0 0 0 0.3 0" result="dark-shadow"></feColorMatrix><feOffset dx="0" dy="4" in="dark-shadow" result="offset-shadow"></feOffset><feOffset dx="0" dy="2" in="conv" result="offset-2"></feOffset><feComposite operator="out" in="offset" in2="offset-2" result="edge-diff"></feComposite><feGaussianBlur in="edge-diff" stdDeviation="1" result="edge-blur"></feGaussianBlur><feColorMatrix in="edge-blur" result="edge-shadow" type="matrix" values="0 0 0 0 0  0 0 0 0 0  0 0 0 0 0  0 0 0 0.5 0"></feColorMatrix><feComposite operator="in" in="edge-shadow" in2="offset" result="edge-shadow-in"></feComposite><feOffset dx="0" dy="1" in="edge-shadow-in" result="edge-shadow-final"></feOffset><feMerge result="out"><feMergeNode in="offset-shadow"></feMergeNode><feMergeNode in="comp"></feMergeNode><feMergeNode in="edge-shadow-final"></feMergeNode><feMergeNode in="SourceGraphic"></feMergeNode></feMerge></filter></defs><g filter="url(#editing-shiny)"><g transform="translate(145.1699719429016, 98.99999237060547)"><path d="M21.25-33.92L21.25-33.92L21.25-33.92Q23.55-33.92 25.34-33.41L25.34-33.41L25.34-33.41Q25.41-33.66 25.54-34.37L25.54-34.37L25.86-36.35L25.86-36.35Q26.11-37.63 26.50-39.74L26.50-39.74L27.52-44.80L40.26-46.08L33.15-8.96L33.15-8.96Q33.09-8.58 33.09-7.94L33.09-7.94L33.09-6.91L33.09-6.91Q33.09-5.50 33.79-4.45L33.79-4.45L33.79-4.45Q34.50-3.39 35.65-3.39L35.65-3.39L35.65-3.39Q34.37-0.38 30.46 0.90L30.46 0.90L30.46 0.90Q29.12 1.28 27.23 1.28L27.23 1.28L27.23 1.28Q25.34 1.28 23.62 0.29L23.62 0.29L23.62 0.29Q21.89-0.70 21.38-2.37L21.38-2.37L21.38-2.37Q20.35-0.70 18.30 0.29L18.30 0.29L18.30 0.29Q16.26 1.28 13.28 1.28L13.28 1.28L13.28 1.28Q10.30 1.28 7.84 0.51L7.84 0.51L7.84 0.51Q5.38-0.26 3.84-1.92L3.84-1.92L3.84-1.92Q1.02-5.18 1.02-12.61L1.02-12.61L1.02-12.61Q1.02-22.21 6.66-28.03L6.66-28.03L6.66-28.03Q12.29-33.92 21.25-33.92ZM20.80-30.08L20.80-30.08L20.80-30.08Q18.43-30.08 17.15-27.52L17.15-27.52L17.15-27.52Q15.87-24.96 14.56-18.62L14.56-18.62L14.56-18.62Q13.25-12.29 13.25-6.59L13.25-6.59L13.25-6.59Q13.25-2.69 15.55-2.69L15.55-2.69L15.55-2.69Q17.60-2.69 19.04-4.74L19.04-4.74L19.04-4.74Q20.48-6.78 21.06-10.18L21.06-10.18L24.51-28.93L24.51-28.93Q23.17-30.08 20.80-30.08ZM43.87-1.92L43.87-1.92L43.87-1.92Q42.37-3.58 41.70-6.21L41.70-6.21L41.70-6.21Q41.02-8.83 41.02-13.12L41.02-13.12L41.02-13.12Q41.02-17.41 42.50-21.31L42.50-21.31L42.50-21.31Q43.97-25.22 46.66-28.03L46.66-28.03L46.66-28.03Q52.16-33.92 61.25-33.92L61.25-33.92L61.25-33.92Q64.51-33.92 66.88-32.83L66.88-32.83L77.82-33.92L73.09-8.96L73.09-8.96Q72.90-8.19 72.90-6.78L72.90-6.78L72.90-6.78Q72.90-5.38 73.76-4.48L73.76-4.48L73.76-4.48Q74.62-3.58 75.90-3.46L75.90-3.46L75.90-3.46Q75.26-1.28 72.93 0L72.93 0L72.93 0Q70.59 1.28 67.97 1.28L67.97 1.28L67.97 1.28Q65.34 1.28 63.58 0.29L63.58 0.29L63.58 0.29Q61.82-0.70 61.31-2.37L61.31-2.37L61.31-2.37Q60.29-0.77 58.11 0.26L58.11 0.26L58.11 0.26Q55.94 1.28 53.02 1.28L53.02 1.28L53.02 1.28Q50.11 1.28 47.74 0.51L47.74 0.51L47.74 0.51Q45.38-0.26 43.87-1.92ZM57.38-27.90L57.38-27.90L57.38-27.90Q56.64-26.75 56-24.80L56-24.80L56-24.80Q55.36-22.85 54.30-17.63L54.30-17.63L54.30-17.63Q53.25-12.42 53.25-8.70L53.25-8.70L53.25-8.70Q53.25-4.99 53.82-3.90L53.82-3.90L53.82-3.90Q54.40-2.82 55.42-2.82L55.42-2.82L55.42-2.82Q57.47-2.82 58.98-4.77L58.98-4.77L58.98-4.77Q60.48-6.72 61.06-10.18L61.06-10.18L64.45-28.93L64.45-28.93Q63.10-30.08 61.54-30.08L61.54-30.08L61.54-30.08Q59.97-30.08 59.04-29.57L59.04-29.57L59.04-29.57Q58.11-29.06 57.38-27.90ZM108.35 1.28L108.35 1.28L108.35 1.28Q100.61 1.28 100.61-4.74L100.61-4.74L100.61-4.74Q100.67-6.40 101.18-9.22L101.18-9.22L102.34-15.10L102.34-15.10Q104.06-23.42 104.06-25.28L104.06-25.28L104.06-25.28Q104.06-28.99 101.89-28.99L101.89-28.99L101.89-28.99Q98.24-28.99 96.32-19.46L96.32-19.46L92.54 0L79.68 1.28L86.34-32.70L96.83-33.92L95.81-27.65L95.81-27.65Q98.82-33.92 108.03-33.92L108.03-33.92L108.03-33.92Q112.51-33.92 114.40-32.03L114.40-32.03L114.40-32.03Q116.29-30.14 116.29-25.92L116.29-25.92L116.29-25.92Q116.29-21.95 114.24-12.67L114.24-12.67L114.24-12.67Q113.28-8.51 113.28-6.94L113.28-6.94L113.28-6.94Q113.28-5.38 114.14-4.48L114.14-4.48L114.14-4.48Q115.01-3.58 116.29-3.46L116.29-3.46L116.29-3.46Q115.65-1.28 113.44 0L113.44 0L113.44 0Q111.23 1.28 108.35 1.28ZM136.77-3.52L136.77-3.52L136.77-3.52Q134.78 1.28 128.45 1.28L128.45 1.28L128.45 1.28Q125.18 1.28 123.14-0.96L123.14-0.96L123.14-0.96Q121.41-2.94 121.41-4.93L121.41-4.93L121.41-4.93Q121.41-10.11 123.78-20.22L123.78-20.22L126.14-32.64L139.14-33.92L135.23-13.70L135.23-13.70Q134.14-8.96 134.14-7.30L134.14-7.30L134.14-7.30Q134.14-3.65 136.77-3.52ZM127.30-41.54L127.30-41.54L127.30-41.54Q127.30-44.03 129.38-45.38L129.38-45.38L129.38-45.38Q131.46-46.72 134.46-46.72L134.46-46.72L134.46-46.72Q137.47-46.72 139.30-45.38L139.30-45.38L139.30-45.38Q141.12-44.03 141.12-41.54L141.12-41.54L141.12-41.54Q141.12-39.04 139.10-37.76L139.10-37.76L139.10-37.76Q137.09-36.48 134.08-36.48L134.08-36.48L134.08-36.48Q131.07-36.48 129.18-37.76L129.18-37.76L129.18-37.76Q127.30-39.04 127.30-41.54ZM161.34-22.46L161.34-22.46L161.34-22.46Q162.24-24.83 162.24-26.88L162.24-26.88L162.24-26.88Q162.24-30.66 159.17-30.66L159.17-30.66L159.17-30.66Q157.57-30.66 156.26-29.22L156.26-29.22L156.26-29.22Q154.94-27.78 154.94-25.98L154.94-25.98L154.94-25.98Q154.94-24.70 155.97-23.68L155.97-23.68L155.97-23.68Q157.44-22.27 161.22-19.97L161.22-19.97L161.22-19.97Q164.99-17.66 166.43-15.78L166.43-15.78L166.43-15.78Q167.87-13.89 167.87-11.30L167.87-11.30L167.87-11.30Q167.87-8.70 166.62-6.34L166.62-6.34L166.62-6.34Q165.38-3.97 163.14-2.30L163.14-2.30L163.14-2.30Q158.34 1.28 150.66 1.28L150.66 1.28L150.66 1.28Q146.50 1.28 143.30-0.90L143.30-0.90L143.30-0.90Q140.10-3.01 140.10-5.50L140.10-5.50L140.10-5.50Q140.10-8 141.92-9.47L141.92-9.47L141.92-9.47Q143.74-10.94 146.43-10.94L146.43-10.94L146.43-10.94Q149.12-10.94 150.78-9.92L150.78-9.92L150.78-9.92Q149.95-7.81 149.95-6.40L149.95-6.40L149.95-6.40Q149.95-2.18 153.54-2.18L153.54-2.18L153.54-2.18Q155.07-2.18 156.10-3.14L156.10-3.14L156.10-3.14Q157.12-4.10 157.12-5.76L157.12-5.76L157.12-5.76Q157.12-9.02 151.62-12.48L151.62-12.48L151.62-12.48Q147.14-15.42 146.11-16.58L146.11-16.58L146.11-16.58Q144.38-18.62 144.38-21.18L144.38-21.18L144.38-21.18Q144.38-23.74 145.60-26.18L145.60-26.18L145.60-26.18Q146.82-28.61 149.06-30.34L149.06-30.34L149.06-30.34Q153.73-33.92 161.86-33.92L161.86-33.92L161.86-33.92Q166.02-33.92 168.48-32.26L168.48-32.26L168.48-32.26Q170.94-30.59 170.94-27.78L170.94-27.78L170.94-27.78Q170.94-24.96 169.25-23.36L169.25-23.36L169.25-23.36Q167.55-21.76 164.48-21.76L164.48-21.76L164.48-21.76Q162.37-21.76 161.34-22.46ZM205.50-7.10L205.50-7.10L205.50-7.10Q205.50-4.29 208.38-3.46L208.38-3.46L208.38-3.46Q207.68-1.09 204.93 0.19L204.93 0.19L204.93 0.19Q202.62 1.28 200.10 1.28L200.10 1.28L200.10 1.28Q197.57 1.28 196.26 0.61L196.26 0.61L196.26 0.61Q194.94-0.06 194.24-1.15L194.24-1.15L194.24-1.15Q193.09-2.82 193.09-5.95L193.09-5.95L193.09-5.95Q193.09-7.81 194.11-12.93L194.11-12.93L195.01-17.79L195.01-17.79Q196.10-23.36 196.10-25.41L196.10-25.41L196.10-25.41Q196.10-28.99 194.11-28.99L194.11-28.99L194.11-28.99Q191.62-28.99 190.02-25.34L190.02-25.34L190.02-25.34Q189.38-23.94 188.93-21.82L188.93-21.82L184.58 0L171.71 1.28L180.74-44.80L193.60-46.08L193.09-43.52L193.09-43.52Q191.30-33.66 189.76-30.34L189.76-30.34L189.76-30.34Q193.34-33.92 199.94-33.92L199.94-33.92L199.94-33.92Q206.91-33.92 208.19-29.31L208.19-29.31L208.19-29.31Q208.64-27.84 208.64-26.56L208.64-26.56L208.64-26.56Q208.64-25.28 208.54-24.29L208.54-24.29L208.54-24.29Q208.45-23.30 208.13-21.50L208.13-21.50L207.30-16.90L205.82-9.66L205.82-9.66Q205.50-8.19 205.50-7.10Z" fill="url(#editing-shiny-gradient)"></path></g></g><g filter="url(#editing-shiny2)"><g transform="translate(145.1700177192688, 99)"><path d="M21.25-33.92L21.25-33.92L21.25-33.92Q23.55-33.92 25.34-33.41L25.34-33.41L25.34-33.41Q25.41-33.66 25.54-34.37L25.54-34.37L25.86-36.35L25.86-36.35Q26.11-37.63 26.50-39.74L26.50-39.74L27.52-44.80L40.26-46.08L33.15-8.96L33.15-8.96Q33.09-8.58 33.09-7.94L33.09-7.94L33.09-6.91L33.09-6.91Q33.09-5.50 33.79-4.45L33.79-4.45L33.79-4.45Q34.50-3.39 35.65-3.39L35.65-3.39L35.65-3.39Q34.37-0.38 30.46 0.90L30.46 0.90L30.46 0.90Q29.12 1.28 27.23 1.28L27.23 1.28L27.23 1.28Q25.34 1.28 23.62 0.29L23.62 0.29L23.62 0.29Q21.89-0.70 21.38-2.37L21.38-2.37L21.38-2.37Q20.35-0.70 18.30 0.29L18.30 0.29L18.30 0.29Q16.26 1.28 13.28 1.28L13.28 1.28L13.28 1.28Q10.30 1.28 7.84 0.51L7.84 0.51L7.84 0.51Q5.38-0.26 3.84-1.92L3.84-1.92L3.84-1.92Q1.02-5.18 1.02-12.61L1.02-12.61L1.02-12.61Q1.02-22.21 6.66-28.03L6.66-28.03L6.66-28.03Q12.29-33.92 21.25-33.92ZM20.80-30.08L20.80-30.08L20.80-30.08Q18.43-30.08 17.15-27.52L17.15-27.52L17.15-27.52Q15.87-24.96 14.56-18.62L14.56-18.62L14.56-18.62Q13.25-12.29 13.25-6.59L13.25-6.59L13.25-6.59Q13.25-2.69 15.55-2.69L15.55-2.69L15.55-2.69Q17.60-2.69 19.04-4.74L19.04-4.74L19.04-4.74Q20.48-6.78 21.06-10.18L21.06-10.18L24.51-28.93L24.51-28.93Q23.17-30.08 20.80-30.08ZM43.87-1.92L43.87-1.92L43.87-1.92Q42.37-3.58 41.70-6.21L41.70-6.21L41.70-6.21Q41.02-8.83 41.02-13.12L41.02-13.12L41.02-13.12Q41.02-17.41 42.50-21.31L42.50-21.31L42.50-21.31Q43.97-25.22 46.66-28.03L46.66-28.03L46.66-28.03Q52.16-33.92 61.25-33.92L61.25-33.92L61.25-33.92Q64.51-33.92 66.88-32.83L66.88-32.83L77.82-33.92L73.09-8.96L73.09-8.96Q72.90-8.19 72.90-6.78L72.90-6.78L72.90-6.78Q72.90-5.38 73.76-4.48L73.76-4.48L73.76-4.48Q74.62-3.58 75.90-3.46L75.90-3.46L75.90-3.46Q75.26-1.28 72.93 0L72.93 0L72.93 0Q70.59 1.28 67.97 1.28L67.97 1.28L67.97 1.28Q65.34 1.28 63.58 0.29L63.58 0.29L63.58 0.29Q61.82-0.70 61.31-2.37L61.31-2.37L61.31-2.37Q60.29-0.77 58.11 0.26L58.11 0.26L58.11 0.26Q55.94 1.28 53.02 1.28L53.02 1.28L53.02 1.28Q50.11 1.28 47.74 0.51L47.74 0.51L47.74 0.51Q45.38-0.26 43.87-1.92ZM57.38-27.90L57.38-27.90L57.38-27.90Q56.64-26.75 56-24.80L56-24.80L56-24.80Q55.36-22.85 54.30-17.63L54.30-17.63L54.30-17.63Q53.25-12.42 53.25-8.70L53.25-8.70L53.25-8.70Q53.25-4.99 53.82-3.90L53.82-3.90L53.82-3.90Q54.40-2.82 55.42-2.82L55.42-2.82L55.42-2.82Q57.47-2.82 58.98-4.77L58.98-4.77L58.98-4.77Q60.48-6.72 61.06-10.18L61.06-10.18L64.45-28.93L64.45-28.93Q63.10-30.08 61.54-30.08L61.54-30.08L61.54-30.08Q59.97-30.08 59.04-29.57L59.04-29.57L59.04-29.57Q58.11-29.06 57.38-27.90ZM108.35 1.28L108.35 1.28L108.35 1.28Q100.61 1.28 100.61-4.74L100.61-4.74L100.61-4.74Q100.67-6.40 101.18-9.22L101.18-9.22L102.34-15.10L102.34-15.10Q104.06-23.42 104.06-25.28L104.06-25.28L104.06-25.28Q104.06-28.99 101.89-28.99L101.89-28.99L101.89-28.99Q98.24-28.99 96.32-19.46L96.32-19.46L92.54 0L79.68 1.28L86.34-32.70L96.83-33.92L95.81-27.65L95.81-27.65Q98.82-33.92 108.03-33.92L108.03-33.92L108.03-33.92Q112.51-33.92 114.40-32.03L114.40-32.03L114.40-32.03Q116.29-30.14 116.29-25.92L116.29-25.92L116.29-25.92Q116.29-21.95 114.24-12.67L114.24-12.67L114.24-12.67Q113.28-8.51 113.28-6.94L113.28-6.94L113.28-6.94Q113.28-5.38 114.14-4.48L114.14-4.48L114.14-4.48Q115.01-3.58 116.29-3.46L116.29-3.46L116.29-3.46Q115.65-1.28 113.44 0L113.44 0L113.44 0Q111.23 1.28 108.35 1.28ZM136.77-3.52L136.77-3.52L136.77-3.52Q134.78 1.28 128.45 1.28L128.45 1.28L128.45 1.28Q125.18 1.28 123.14-0.96L123.14-0.96L123.14-0.96Q121.41-2.94 121.41-4.93L121.41-4.93L121.41-4.93Q121.41-10.11 123.78-20.22L123.78-20.22L126.14-32.64L139.14-33.92L135.23-13.70L135.23-13.70Q134.14-8.96 134.14-7.30L134.14-7.30L134.14-7.30Q134.14-3.65 136.77-3.52ZM127.30-41.54L127.30-41.54L127.30-41.54Q127.30-44.03 129.38-45.38L129.38-45.38L129.38-45.38Q131.46-46.72 134.46-46.72L134.46-46.72L134.46-46.72Q137.47-46.72 139.30-45.38L139.30-45.38L139.30-45.38Q141.12-44.03 141.12-41.54L141.12-41.54L141.12-41.54Q141.12-39.04 139.10-37.76L139.10-37.76L139.10-37.76Q137.09-36.48 134.08-36.48L134.08-36.48L134.08-36.48Q131.07-36.48 129.18-37.76L129.18-37.76L129.18-37.76Q127.30-39.04 127.30-41.54ZM161.34-22.46L161.34-22.46L161.34-22.46Q162.24-24.83 162.24-26.88L162.24-26.88L162.24-26.88Q162.24-30.66 159.17-30.66L159.17-30.66L159.17-30.66Q157.57-30.66 156.26-29.22L156.26-29.22L156.26-29.22Q154.94-27.78 154.94-25.98L154.94-25.98L154.94-25.98Q154.94-24.70 155.97-23.68L155.97-23.68L155.97-23.68Q157.44-22.27 161.22-19.97L161.22-19.97L161.22-19.97Q164.99-17.66 166.43-15.78L166.43-15.78L166.43-15.78Q167.87-13.89 167.87-11.30L167.87-11.30L167.87-11.30Q167.87-8.70 166.62-6.34L166.62-6.34L166.62-6.34Q165.38-3.97 163.14-2.30L163.14-2.30L163.14-2.30Q158.34 1.28 150.66 1.28L150.66 1.28L150.66 1.28Q146.50 1.28 143.30-0.90L143.30-0.90L143.30-0.90Q140.10-3.01 140.10-5.50L140.10-5.50L140.10-5.50Q140.10-8 141.92-9.47L141.92-9.47L141.92-9.47Q143.74-10.94 146.43-10.94L146.43-10.94L146.43-10.94Q149.12-10.94 150.78-9.92L150.78-9.92L150.78-9.92Q149.95-7.81 149.95-6.40L149.95-6.40L149.95-6.40Q149.95-2.18 153.54-2.18L153.54-2.18L153.54-2.18Q155.07-2.18 156.10-3.14L156.10-3.14L156.10-3.14Q157.12-4.10 157.12-5.76L157.12-5.76L157.12-5.76Q157.12-9.02 151.62-12.48L151.62-12.48L151.62-12.48Q147.14-15.42 146.11-16.58L146.11-16.58L146.11-16.58Q144.38-18.62 144.38-21.18L144.38-21.18L144.38-21.18Q144.38-23.74 145.60-26.18L145.60-26.18L145.60-26.18Q146.82-28.61 149.06-30.34L149.06-30.34L149.06-30.34Q153.73-33.92 161.86-33.92L161.86-33.92L161.86-33.92Q166.02-33.92 168.48-32.26L168.48-32.26L168.48-32.26Q170.94-30.59 170.94-27.78L170.94-27.78L170.94-27.78Q170.94-24.96 169.25-23.36L169.25-23.36L169.25-23.36Q167.55-21.76 164.48-21.76L164.48-21.76L164.48-21.76Q162.37-21.76 161.34-22.46ZM205.50-7.10L205.50-7.10L205.50-7.10Q205.50-4.29 208.38-3.46L208.38-3.46L208.38-3.46Q207.68-1.09 204.93 0.19L204.93 0.19L204.93 0.19Q202.62 1.28 200.10 1.28L200.10 1.28L200.10 1.28Q197.57 1.28 196.26 0.61L196.26 0.61L196.26 0.61Q194.94-0.06 194.24-1.15L194.24-1.15L194.24-1.15Q193.09-2.82 193.09-5.95L193.09-5.95L193.09-5.95Q193.09-7.81 194.11-12.93L194.11-12.93L195.01-17.79L195.01-17.79Q196.10-23.36 196.10-25.41L196.10-25.41L196.10-25.41Q196.10-28.99 194.11-28.99L194.11-28.99L194.11-28.99Q191.62-28.99 190.02-25.34L190.02-25.34L190.02-25.34Q189.38-23.94 188.93-21.82L188.93-21.82L184.58 0L171.71 1.28L180.74-44.80L193.60-46.08L193.09-43.52L193.09-43.52Q191.30-33.66 189.76-30.34L189.76-30.34L189.76-30.34Q193.34-33.92 199.94-33.92L199.94-33.92L199.94-33.92Q206.91-33.92 208.19-29.31L208.19-29.31L208.19-29.31Q208.64-27.84 208.64-26.56L208.64-26.56L208.64-26.56Q208.64-25.28 208.54-24.29L208.54-24.29L208.54-24.29Q208.45-23.30 208.13-21.50L208.13-21.50L207.30-16.90L205.82-9.66L205.82-9.66Q205.50-8.19 205.50-7.10Z" fill="url(#editing-shiny-gradient2)"></path></g></g><style>text {
  font-size: 64px;
  font-family: Arial Black;
  dominant-baseline: central;
  text-anchor: middle;
}</style></svg>